<?xml version="1.0" standalone="no"?><!DOCTYPE svg PUBLIC "-//W3C//DTD SVG 1.1//EN" "http://www.w3.org/Graphics/SVG/1.1/DTD/svg11.dtd"><svg t="1505094138296" class="icon" style="" viewBox="0 0 1024 1024" version="1.1" xmlns="http://www.w3.org/2000/svg" p-id="2613" xmlns:xlink="http://www.w3.org/1999/xlink" width="16" height="16"><defs><style type="text/css"></style></defs><path d="M915.973 490.681c-14.13 0-25.583 11.454-25.583 25.583v364.297c0 8.464-6.886 15.35-15.35 15.35H138.26c-8.464 0-15.35-6.886-15.35-15.35V516.264c0-14.129-11.454-25.583-25.582-25.583s-25.583 11.454-25.583 25.583v364.297c0 36.676 29.839 66.515 66.515 66.515h736.78c36.677 0 66.515-29.839 66.515-66.515V516.264c0-14.129-11.453-25.583-25.582-25.583z" p-id="2614" fill="#ef4f4f"></path><path d="M488.561 775.854a25.5 25.5 0 0 0 18.09 7.493 25.5 25.5 0 0 0 18.09-7.493l241.5-241.5c9.991-9.99 9.991-26.188 0-36.179-9.991-9.99-26.188-9.99-36.179 0l-197.83 197.828V102.848c0-14.128-11.453-25.582-25.582-25.582-14.129 0-25.582 11.454-25.582 25.582v593.155L283.24 498.174c-9.992-9.99-26.189-9.99-36.18 0-9.99 9.99-9.99 26.189 0 36.18l241.501 241.5z" p-id="2615" fill="#ef4f4f"></path></svg>