<?xml version="1.0" encoding="UTF-8"?>
<svg width="35px" height="35px" viewBox="0 0 35 35" version="1.1" xmlns="http://www.w3.org/2000/svg" xmlns:xlink="http://www.w3.org/1999/xlink">
    <!-- Generator: Sketch 44.1 (41455) - http://www.bohemiancoding.com/sketch -->
    <title>媒资</title>
    <desc>Created with Sketch.</desc>
    <defs></defs>
    <g id="报选题／选题列表" stroke="none" stroke-width="1" fill="none" fill-rule="evenodd">
        <g id="Artboard-2" transform="translate(-282.000000, -1711.000000)" stroke="#888888" stroke-width="2">
            <g id="媒资" transform="translate(279.000000, 1708.000000)">
                <path d="M22.2415378,17.9551505 C24.4602361,17.8305994 31.1824169,19.390433 34.0477149,16.5251351 C36.9130128,13.6598371 36.9130128,9.01427135 34.0477149,6.14897343 C31.1824169,3.28367552 26.5368511,3.28367552 23.6715532,6.14897343 C20.8062553,9.01427135 22.5662151,15.8496037 22.2415378,17.9551505 Z" id="Oval-2"></path>
                <path d="M22.2415378,22.313339 C24.4602361,22.4378901 31.1824169,20.8780566 34.0477149,23.7433545 C36.9130128,26.6086524 36.9130128,31.2542182 34.0477149,34.1195161 C31.1824169,36.984814 26.5368511,36.984814 23.6715532,34.1195161 C20.8062553,31.2542182 22.5662151,24.4188858 22.2415378,22.313339 Z" id="Oval-2-Copy-2"></path>
                <path d="M17.9551505,17.9551505 C15.7364522,17.8305994 9.01427135,19.390433 6.14897343,16.5251351 C3.28367552,13.6598371 3.28367552,9.01427135 6.14897343,6.14897343 C9.01427135,3.28367552 13.6598371,3.28367552 16.5251351,6.14897343 C19.390433,9.01427135 17.6304732,15.8496037 17.9551505,17.9551505 Z" id="Oval-2-Copy"></path>
                <path d="M17.9551505,22.313339 C15.7364522,22.4378901 9.01427135,20.8780566 6.14897343,23.7433545 C3.28367552,26.6086524 3.28367552,31.2542182 6.14897343,34.1195161 C9.01427135,36.984814 13.6598371,36.984814 16.5251351,34.1195161 C19.390433,31.2542182 17.6304732,24.4188858 17.9551505,22.313339 Z" id="Oval-2-Copy-3"></path>
            </g>
        </g>
    </g>
</svg>