<?xml version="1.0" encoding="UTF-8"?>
<svg width="34px" height="37px" viewBox="0 0 34 37" version="1.1" xmlns="http://www.w3.org/2000/svg" xmlns:xlink="http://www.w3.org/1999/xlink">
    <!-- Generator: Sketch 44.1 (41455) - http://www.bohemiancoding.com/sketch -->
    <title>审核2</title>
    <desc>Created with Sketch.</desc>
    <defs></defs>
    <g id="媒资列表／审核" stroke="none" stroke-width="1" fill="none" fill-rule="evenodd">
        <g id="Artboard" transform="translate(-2315.000000, -950.000000)" stroke-width="2" stroke="#F85759">
            <g id="操作列表" transform="translate(2072.000000, 910.000000)">
                <g id="审核2" transform="translate(242.000000, 40.000000)">
                    <polyline id="Path-2" points="9.49043518 35.5835937 2.625 35.5835937 2.625 1.85 33.244555 1.85 33.244555 35.5835937 26.9902086 35.5835937"></polyline>
                    <path d="M20.2098545,20.031075 L20.2098545,24.0398149 L24.3252668,24.0398149 L24.3252668,24.0398149 C26.8133104,24.0398149 28.8302682,26.0567727 28.8302682,28.5448163 L28.8302682,28.5448163 L7,28.5448163 C7,26.0567727 9.01695783,24.0398149 11.5050014,24.0398149 L11.5050014,24.0398149 L15.4633758,24.0398149 L15.4633758,19.9640592 C13.3356883,19.0201851 11.8511707,16.885451 11.8511707,14.4031765 C11.8511707,11.0462923 14.5660996,8.325 17.9151341,8.325 C21.2641686,8.325 23.9790975,11.0462923 23.9790975,14.4031765 C23.9790975,16.9460778 22.421179,19.1242549 20.2098545,20.031075 Z" id="Combined-Shape"></path>
                </g>
            </g>
        </g>
    </g>
</svg>