<?xml version="1.0" encoding="UTF-8"?>
<svg width="40px" height="40px" viewBox="0 0 40 40" version="1.1" xmlns="http://www.w3.org/2000/svg" xmlns:xlink="http://www.w3.org/1999/xlink">
    <!-- Generator: Sketch 44.1 (41455) - http://www.bohemiancoding.com/sketch -->
    <title>审批人</title>
    <desc>Created with Sketch.</desc>
    <defs></defs>
    <g id="媒资列表／审核" stroke="none" stroke-width="1" fill="none" fill-rule="evenodd">
        <g id="Artboard" transform="translate(-3621.000000, -2383.000000)" stroke="#979797" stroke-width="2">
            <g id="Group-9-Copy" transform="translate(3571.000000, 2224.000000)">
                <g id="审批人" transform="translate(50.000000, 159.000000)">
                    <path d="M23.3501163,20.6839845 L23.3501163,27.4247557 L31.8794788,27.4247557 C35.1931873,27.4247557 37.8794788,30.1110472 37.8794788,33.4247557 L37.8794788,35 L1.08543509,35 L1.08543509,33.4247557 C1.08543509,30.1110472 3.77172659,27.4247557 7.08543509,27.4247557 L7.08543509,27.4247557 L15.3501163,27.4247557 L15.3501163,20.5712962 C11.7639843,18.9841542 9.26188925,15.3945588 9.26188925,11.2205677 C9.26188925,5.57590403 13.8377933,1 19.482457,1 C25.1271206,1 29.7030247,5.57590403 29.7030247,11.2205677 C29.7030247,15.4965039 27.0772153,19.1591494 23.3501163,20.6839845 Z" id="Combined-Shape" fill="#FFFFFF"></path>
                    <path d="M0.0888671875,38.6010742 L39.2914486,38.6010742" id="Path-18" fill="#D8D8D8"></path>
                </g>
            </g>
        </g>
    </g>
</svg>