<?xml version="1.0" encoding="UTF-8"?>
<svg width="39px" height="40px" viewBox="0 0 39 40" version="1.1" xmlns="http://www.w3.org/2000/svg" xmlns:xlink="http://www.w3.org/1999/xlink">
    <!-- Generator: Sketch 44.1 (41455) - http://www.bohemiancoding.com/sketch -->
    <title>转审</title>
    <desc>Created with Sketch.</desc>
    <defs></defs>
    <g id="媒资列表／审核" stroke="none" stroke-width="1" fill="none" fill-rule="evenodd">
        <g id="Artboard" transform="translate(-2448.000000, -949.000000)" stroke="#F85759" stroke-width="2">
            <g id="操作列表" transform="translate(2072.000000, 910.000000)">
                <g id="转审" transform="translate(376.333333, 39.000000)">
                    <path d="M22.6053551,12.5066644 L25.9327666,17.2587005 L29.9019754,4.68886366 L16.543927,3.85004786 L19.9080128,8.65446036 C19.8758408,8.66174751 19.8431432,8.66974701 19.8098945,8.67845334 C15.9598056,10.6269257 14.0651112,15.0912561 14.1258114,22.0714446 C17.5806746,16.5749488 20.4071892,13.3866888 22.6053551,12.5066644 Z" id="Combined-Shape" transform="translate(22.000000, 13.000000) rotate(47.000000) translate(-22.000000, -13.000000) "></path>
                    <path d="M30.6053551,27.5066644 L33.9327666,32.2587005 L37.9019754,19.6888637 L24.543927,18.8500479 L27.9080128,23.6544604 C27.8758408,23.6617475 27.8431432,23.669747 27.8098945,23.6784533 C23.9598056,25.6269257 22.0651112,30.0912561 22.1258114,37.0714446 C25.5806746,31.5749488 28.4071892,28.3866888 30.6053551,27.5066644 Z" id="Combined-Shape-Copy" transform="translate(30.000000, 28.000000) rotate(174.000000) translate(-30.000000, -28.000000) "></path>
                    <path d="M12.6053551,26.5066644 L15.9327666,31.2587005 L19.9019754,18.6888637 L6.54392697,17.8500479 L9.90801282,22.6544604 C9.87584076,22.6617475 9.84314318,22.669747 9.80989453,22.6784533 C5.95980559,24.6269257 4.06511123,29.0912561 4.12581144,36.0714446 C7.5806746,30.5749488 10.4071892,27.3866888 12.6053551,26.5066644 Z" id="Combined-Shape-Copy-2" transform="translate(12.000000, 27.000000) rotate(288.000000) translate(-12.000000, -27.000000) "></path>
                </g>
            </g>
        </g>
    </g>
</svg>