<?xml version="1.0" encoding="UTF-8"?>
<svg width="37px" height="36px" viewBox="0 0 37 36" version="1.1" xmlns="http://www.w3.org/2000/svg" xmlns:xlink="http://www.w3.org/1999/xlink">
    <!-- Generator: Sketch 44.1 (41455) - http://www.bohemiancoding.com/sketch -->
    <title>附件-拍照</title>
    <desc>Created with Sketch.</desc>
    <defs>
        <path d="M11.5657443,7.71153846 L4.58133444,7.71153846 C2.61363523,7.71153846 1,9.72705548 1,12.2133217 L1,33.4982167 C1,35.9892328 2.60341804,38 4.58133444,38 L34.4186656,38 C36.3863648,38 38,35.984483 38,33.4982167 L38,12.2133217 C38,9.72230565 36.396582,7.71153846 34.4186656,7.71153846 L27.5074981,7.71153846 L26.0645161,6.82276643 L26.0645161,4.99948523 C26.0645161,3.34340932 25.0000424,2 23.6869474,2 L15.3130526,2 C14.0098877,2 12.9354839,3.34291528 12.9354839,4.99948523 L12.9354839,6.82276643 L11.5657443,7.71153846 Z" id="path-1"></path>
    </defs>
    <g id="Symbols" stroke="none" stroke-width="1" fill="none" fill-rule="evenodd">
        <g id="上传附件" transform="translate(-61.000000, -33.000000)">
            <g id="拍照" transform="translate(60.000000, 31.000000)">
                <g id="Combined-Shape">
                    <use fill="#FFFFFF" fill-rule="evenodd" xlink:href="#path-1"></use>
                    <path stroke="#888888" stroke-width="2" d="M13.9354839,7.36597063 L11.8617491,8.71153846 L4.58133444,8.71153846 C3.21857529,8.71153846 2,10.2402906 2,12.2133217 L2,33.4982167 C2,35.4789768 3.21091254,37 4.58133444,37 L34.4186656,37 C35.7814247,37 37,35.4712478 37,33.4982167 L37,12.2133217 C37,10.2325617 35.7890875,8.71153846 34.4186656,8.71153846 L27.2242434,8.71153846 L25.0645161,7.38130344 L25.0645161,4.99948523 C25.0645161,3.85116465 24.3899096,3 23.6869474,3 L15.3130526,3 C14.6156529,3 13.9354839,3.85561697 13.9354839,4.99948523 L13.9354839,7.36597063 Z"></path>
                </g>
                <rect id="Rectangle-14" fill="#888888" fill-rule="evenodd" x="29" y="16" width="3" height="3"></rect>
                <circle id="Oval-3" stroke="#888888" stroke-width="2" fill="#FFFFFF" fill-rule="evenodd" cx="19.5" cy="22.5" r="6.5"></circle>
            </g>
        </g>
    </g>
</svg>